<svg width="15" height="20" viewBox="0 0 15 20" fill="none" xmlns="http://www.w3.org/2000/svg">
<path d="M14.6211 15.426C14.378 14.877 13.9357 14.4556 13.3756 14.2393C13.1051 14.1349 12.8245 14.0859 12.5476 14.0882V10.6401C12.5476 9.91715 12.7464 9.20875 13.1226 8.59144C13.4115 8.11734 13.5642 7.57332 13.5642 7.01816C13.5642 6.07156 13.1121 5.16738 12.3548 4.59941C11.9862 4.32289 11.6993 3.95117 11.5252 3.52445L11.0998 2.48164C10.4849 0.974102 9.0356 0 7.40744 0C5.77931 0 4.32998 0.974102 3.71506 2.48164L3.28971 3.52441C3.11564 3.95113 2.82877 4.32285 2.46006 4.59938C1.70279 5.16734 1.25068 6.07156 1.25068 7.01813C1.25068 7.57328 1.40338 8.11734 1.69228 8.59141C2.06846 9.20875 2.26732 9.91715 2.26732 10.64V14.0882C1.99041 14.0859 1.70974 14.1349 1.43928 14.2393C0.879198 14.4556 0.436815 14.877 0.193729 15.426C-0.0493956 15.975 -0.0641613 16.5857 0.152128 17.1458L0.45662 17.9344C0.69244 18.5451 1.10248 19.0636 1.64236 19.4339C2.18224 19.8043 2.81369 20 3.46834 20H11.3465C12.0012 20 12.6326 19.8043 13.1725 19.434C13.7124 19.0637 14.1224 18.5452 14.3583 17.9345L14.6628 17.1459C14.879 16.5858 14.8642 15.975 14.6211 15.426ZM10.4401 3.96703C10.6943 4.59023 11.1133 5.13309 11.6517 5.53688C12.1154 5.88469 12.3923 6.43844 12.3923 7.01813C12.3923 7.35813 12.2988 7.69125 12.1219 7.9816C11.6337 8.78269 11.3757 9.70199 11.3757 10.6401V14.4295C11.1304 14.5826 10.9118 14.7844 10.7359 15.0311L10.4897 15.3762H10.2038V13.4308C10.2038 10.0315 10.0554 6.59086 9.76263 3.20465L9.6874 2.33418C9.81744 2.51426 9.92803 2.71156 10.0147 2.92418L10.4401 3.96703ZM5.9426 7.32238H8.87232C8.90525 7.95648 8.93314 8.59113 8.95588 9.22578H5.85904C5.88177 8.59113 5.90963 7.95648 5.9426 7.32238ZM5.82271 10.3976H8.9922C9.00869 11.0327 9.01998 11.6674 9.02615 12.301H5.78877C5.7949 11.6674 5.80623 11.0327 5.82271 10.3976ZM8.6722 4.24715C8.72174 4.88023 8.76619 5.51488 8.80556 6.15051H6.00935C6.04873 5.51488 6.09318 4.88023 6.14271 4.24715H8.6722ZM5.78295 13.4729H9.03189V15.3762H5.78295V13.4729ZM7.40744 1.17188C7.76408 1.17188 8.10849 1.23816 8.42701 1.36125L8.57517 3.07523H6.23971L6.38787 1.36125C6.70638 1.2382 7.05084 1.17188 7.40744 1.17188ZM2.69303 7.9816C2.51611 7.69125 2.4226 7.35813 2.4226 7.01813C2.4226 6.43844 2.69947 5.88469 3.16322 5.53688C3.70166 5.13305 4.12064 4.5902 4.37482 3.96699L4.80017 2.92422C4.88689 2.7116 4.99748 2.5143 5.12756 2.33422L5.05232 3.20461C4.75955 6.59102 4.61115 10.0316 4.61115 13.4309V15.3762H4.32525L4.07908 15.0311C3.90318 14.7844 3.68447 14.5826 3.43928 14.4295V10.64C3.4392 9.70199 3.18119 8.78269 2.69303 7.9816ZM13.5695 16.7237L13.2651 17.5123C12.9612 18.2993 12.1901 18.8281 11.3465 18.8281H3.46834C2.62471 18.8281 1.85373 18.2994 1.54982 17.5123L1.24529 16.7237C1.14178 16.4557 1.14885 16.1633 1.26521 15.9005C1.38158 15.6378 1.5933 15.4361 1.86139 15.3325C1.98803 15.2836 2.1192 15.2601 2.24892 15.2601C2.58896 15.2601 2.9183 15.4218 3.1249 15.7115L3.72154 16.5481H11.0932L11.6899 15.7115C11.9753 15.3112 12.4948 15.1555 12.9534 15.3325C13.2215 15.436 13.4332 15.6377 13.5496 15.9005C13.666 16.1633 13.6731 16.4557 13.5695 16.7237Z" fill="black"/>
</svg>
